# xmcd
#
# Track frame offsets: 
#        150
#        22759
#        52766
#        77338
#        108827
#        130103
#        148594
#        177920
#        194625
#        212537
#
# Disc length: 3125 seconds
#
# Revision: 2
# Processed by: cddbd v1.5.2PL0 Copyright (c) Steve Scherf et al.
# Submitted via: ExactAudioCopy v1.3
#
DISCID=770c330a
DTITLE=Kora Jazz Trio - Kora Jazz Band
DYEAR=2011
DGENRE=Jazz
TTITLE0=All Blues
TTITLE1=Kuma
TTITLE2=Banekh
TTITLE3=Madiba
TTITLE4=Oyé Como Va
TTITLE5=Ewagne
TTITLE6=Catarina
TTITLE7=Mandjou
TTITLE8=Soukou-Papaye
TTITLE9=Spain
EXTD=YEAR: 2011
EXTT0=
EXTT1=
EXTT2=
EXTT3=
EXTT4=
EXTT5=
EXTT6=
EXTT7=
EXTT8=
EXTT9=
PLAYORDER=
